<svg xmlns="http://www.w3.org/2000/svg" width="1200" height="520" viewBox="0 0 1200 520" role="img" aria-label="递增插入 · 同序删除">
<rect width="1200" height="520" fill="#fff"/>
<text x="88" y="25" fill="#222" font-family="'Microsoft YaHei','Noto Sans CJK SC',Arial,sans-serif" font-size="18" font-weight="600">递增插入 · 同序删除</text>
<text x="1166" y="25" text-anchor="end" fill="#667085" font-family="'Microsoft YaHei','Noto Sans CJK SC',Arial,sans-serif" font-size="14">总时间 · 双对数坐标 · 越低越好</text>
<line x1="88" y1="422" x2="1166" y2="422" stroke="#d9dee5"/>
<text x="76" y="427" text-anchor="end" fill="#667085" font-family="'Microsoft YaHei','Noto Sans CJK SC',Arial,sans-serif" font-size="13">0.01 ms</text>
<line x1="88" y1="361.33333333333337" x2="1166" y2="361.33333333333337" stroke="#d9dee5"/>
<text x="76" y="366.33333333333337" text-anchor="end" fill="#667085" font-family="'Microsoft YaHei','Noto Sans CJK SC',Arial,sans-serif" font-size="13">0.1 ms</text>
<line x1="88" y1="300.66666666666663" x2="1166" y2="300.66666666666663" stroke="#d9dee5"/>
<text x="76" y="305.66666666666663" text-anchor="end" fill="#667085" font-family="'Microsoft YaHei','Noto Sans CJK SC',Arial,sans-serif" font-size="13">1 ms</text>
<line x1="88" y1="240" x2="1166" y2="240" stroke="#d9dee5"/>
<text x="76" y="245" text-anchor="end" fill="#667085" font-family="'Microsoft YaHei','Noto Sans CJK SC',Arial,sans-serif" font-size="13">10 ms</text>
<line x1="88" y1="179.33333333333331" x2="1166" y2="179.33333333333331" stroke="#d9dee5"/>
<text x="76" y="184.33333333333331" text-anchor="end" fill="#667085" font-family="'Microsoft YaHei','Noto Sans CJK SC',Arial,sans-serif" font-size="13">100 ms</text>
<line x1="88" y1="118.66666666666669" x2="1166" y2="118.66666666666669" stroke="#d9dee5"/>
<text x="76" y="123.66666666666669" text-anchor="end" fill="#667085" font-family="'Microsoft YaHei','Noto Sans CJK SC',Arial,sans-serif" font-size="13">1 秒</text>
<line x1="88" y1="58" x2="1166" y2="58" stroke="#d9dee5"/>
<text x="76" y="63" text-anchor="end" fill="#667085" font-family="'Microsoft YaHei','Noto Sans CJK SC',Arial,sans-serif" font-size="13">10 秒</text>
<line x1="88" y1="58" x2="88" y2="422" stroke="#edf0f3"/>
<text x="88" y="446" text-anchor="middle" fill="#667085" font-family="'Microsoft YaHei','Noto Sans CJK SC',Arial,sans-serif" font-size="13">1k</text>
<line x1="250.25516766288587" y1="58" x2="250.25516766288587" y2="422" stroke="#edf0f3"/>
<text x="250.25516766288587" y="446" text-anchor="middle" fill="#667085" font-family="'Microsoft YaHei','Noto Sans CJK SC',Arial,sans-serif" font-size="13">2k</text>
<line x1="464.7448323371143" y1="58" x2="464.7448323371143" y2="422" stroke="#edf0f3"/>
<text x="464.7448323371143" y="446" text-anchor="middle" fill="#667085" font-family="'Microsoft YaHei','Noto Sans CJK SC',Arial,sans-serif" font-size="13">5k</text>
<line x1="627.0000000000001" y1="58" x2="627.0000000000001" y2="422" stroke="#edf0f3"/>
<text x="627.0000000000001" y="446" text-anchor="middle" fill="#667085" font-family="'Microsoft YaHei','Noto Sans CJK SC',Arial,sans-serif" font-size="13">10k</text>
<line x1="789.2551676628856" y1="58" x2="789.2551676628856" y2="422" stroke="#edf0f3"/>
<text x="789.2551676628856" y="446" text-anchor="middle" fill="#667085" font-family="'Microsoft YaHei','Noto Sans CJK SC',Arial,sans-serif" font-size="13">20k</text>
<line x1="1003.7448323371141" y1="58" x2="1003.7448323371141" y2="422" stroke="#edf0f3"/>
<text x="1003.7448323371141" y="446" text-anchor="middle" fill="#667085" font-family="'Microsoft YaHei','Noto Sans CJK SC',Arial,sans-serif" font-size="13">50k</text>
<line x1="1166" y1="58" x2="1166" y2="422" stroke="#edf0f3"/>
<text x="1166" y="446" text-anchor="middle" fill="#667085" font-family="'Microsoft YaHei','Noto Sans CJK SC',Arial,sans-serif" font-size="13">100k</text>
<path d="M 88.0 316.8 L 250.3 275.5 L 464.7 226.6 L 627.0 190.8 L 789.3 155.2 L 1003.7 103.3 L 1166.0 64.7" fill="none" stroke="#c43d4f" stroke-width="3" stroke-linejoin="round"/>
<circle cx="88.0" cy="316.8" r="4.5" fill="#fff" stroke="#c43d4f" stroke-width="2.5"><title>普通 BST：N=1000，0.542 ms</title></circle>
<circle cx="250.3" cy="275.5" r="4.5" fill="#fff" stroke="#c43d4f" stroke-width="2.5"><title>普通 BST：N=2000，2.601 ms</title></circle>
<circle cx="464.7" cy="226.6" r="4.5" fill="#fff" stroke="#c43d4f" stroke-width="2.5"><title>普通 BST：N=5000，16.607 ms</title></circle>
<circle cx="627.0" cy="190.8" r="4.5" fill="#fff" stroke="#c43d4f" stroke-width="2.5"><title>普通 BST：N=10000，64.650 ms</title></circle>
<circle cx="789.3" cy="155.2" r="4.5" fill="#fff" stroke="#c43d4f" stroke-width="2.5"><title>普通 BST：N=20000，250.323 ms</title></circle>
<circle cx="1003.7" cy="103.3" r="4.5" fill="#fff" stroke="#c43d4f" stroke-width="2.5"><title>普通 BST：N=50000，1789.558 ms</title></circle>
<circle cx="1166.0" cy="64.7" r="4.5" fill="#fff" stroke="#c43d4f" stroke-width="2.5"><title>普通 BST：N=100000，7753.853 ms</title></circle>
<path d="M 88.0 373.5 L 250.3 351.9 L 464.7 324.6 L 627.0 307.5 L 789.3 288.1 L 1003.7 261.3 L 1166.0 241.4" fill="none" stroke="#3274b5" stroke-width="3" stroke-linejoin="round"/>
<circle cx="88.0" cy="373.5" r="4.5" fill="#fff" stroke="#3274b5" stroke-width="2.5"><title>AVL 树：N=1000，0.063 ms</title></circle>
<circle cx="250.3" cy="351.9" r="4.5" fill="#fff" stroke="#3274b5" stroke-width="2.5"><title>AVL 树：N=2000，0.143 ms</title></circle>
<circle cx="464.7" cy="324.6" r="4.5" fill="#fff" stroke="#3274b5" stroke-width="2.5"><title>AVL 树：N=5000，0.404 ms</title></circle>
<circle cx="627.0" cy="307.5" r="4.5" fill="#fff" stroke="#3274b5" stroke-width="2.5"><title>AVL 树：N=10000，0.771 ms</title></circle>
<circle cx="789.3" cy="288.1" r="4.5" fill="#fff" stroke="#3274b5" stroke-width="2.5"><title>AVL 树：N=20000，1.612 ms</title></circle>
<circle cx="1003.7" cy="261.3" r="4.5" fill="#fff" stroke="#3274b5" stroke-width="2.5"><title>AVL 树：N=50000，4.455 ms</title></circle>
<circle cx="1166.0" cy="241.4" r="4.5" fill="#fff" stroke="#3274b5" stroke-width="2.5"><title>AVL 树：N=100000，9.500 ms</title></circle>
<path d="M 88.0 387.7 L 250.3 363.0 L 464.7 341.4 L 627.0 323.3 L 789.3 302.2 L 1003.7 274.1 L 1166.0 253.0" fill="none" stroke="#16877c" stroke-width="3" stroke-linejoin="round"/>
<circle cx="88.0" cy="387.7" r="4.5" fill="#fff" stroke="#16877c" stroke-width="2.5"><title>伸展树：N=1000，0.037 ms</title></circle>
<circle cx="250.3" cy="363.0" r="4.5" fill="#fff" stroke="#16877c" stroke-width="2.5"><title>伸展树：N=2000，0.094 ms</title></circle>
<circle cx="464.7" cy="341.4" r="4.5" fill="#fff" stroke="#16877c" stroke-width="2.5"><title>伸展树：N=5000，0.213 ms</title></circle>
<circle cx="627.0" cy="323.3" r="4.5" fill="#fff" stroke="#16877c" stroke-width="2.5"><title>伸展树：N=10000，0.423 ms</title></circle>
<circle cx="789.3" cy="302.2" r="4.5" fill="#fff" stroke="#16877c" stroke-width="2.5"><title>伸展树：N=20000，0.942 ms</title></circle>
<circle cx="1003.7" cy="274.1" r="4.5" fill="#fff" stroke="#16877c" stroke-width="2.5"><title>伸展树：N=50000，2.742 ms</title></circle>
<circle cx="1166.0" cy="253.0" r="4.5" fill="#fff" stroke="#16877c" stroke-width="2.5"><title>伸展树：N=100000，6.111 ms</title></circle>
<path d="M 88.0 375.2 L 250.3 354.3 L 464.7 328.4 L 627.0 310.2 L 789.3 288.7 L 1003.7 264.0 L 1166.0 244.3" fill="none" stroke="#7b55aa" stroke-width="3" stroke-linejoin="round"/>
<circle cx="88.0" cy="375.2" r="4.5" fill="#fff" stroke="#7b55aa" stroke-width="2.5"><title>红黑树：N=1000，0.059 ms</title></circle>
<circle cx="250.3" cy="354.3" r="4.5" fill="#fff" stroke="#7b55aa" stroke-width="2.5"><title>红黑树：N=2000，0.130 ms</title></circle>
<circle cx="464.7" cy="328.4" r="4.5" fill="#fff" stroke="#7b55aa" stroke-width="2.5"><title>红黑树：N=5000，0.349 ms</title></circle>
<circle cx="627.0" cy="310.2" r="4.5" fill="#fff" stroke="#7b55aa" stroke-width="2.5"><title>红黑树：N=10000，0.698 ms</title></circle>
<circle cx="789.3" cy="288.7" r="4.5" fill="#fff" stroke="#7b55aa" stroke-width="2.5"><title>红黑树：N=20000，1.575 ms</title></circle>
<circle cx="1003.7" cy="264.0" r="4.5" fill="#fff" stroke="#7b55aa" stroke-width="2.5"><title>红黑树：N=50000，4.017 ms</title></circle>
<circle cx="1166.0" cy="244.3" r="4.5" fill="#fff" stroke="#7b55aa" stroke-width="2.5"><title>红黑树：N=100000，8.485 ms</title></circle>
<path d="M 88.0 330.8 L 250.3 312.6 L 464.7 286.6 L 627.0 265.6 L 789.3 249.5 L 1003.7 218.7 L 1166.0 201.0" fill="none" stroke="#cf6f21" stroke-width="3" stroke-linejoin="round"/>
<circle cx="88.0" cy="330.8" r="4.5" fill="#fff" stroke="#cf6f21" stroke-width="2.5"><title>3 阶 B+ 树：N=1000，0.318 ms</title></circle>
<circle cx="250.3" cy="312.6" r="4.5" fill="#fff" stroke="#cf6f21" stroke-width="2.5"><title>3 阶 B+ 树：N=2000，0.635 ms</title></circle>
<circle cx="464.7" cy="286.6" r="4.5" fill="#fff" stroke="#cf6f21" stroke-width="2.5"><title>3 阶 B+ 树：N=5000，1.704 ms</title></circle>
<circle cx="627.0" cy="265.6" r="4.5" fill="#fff" stroke="#cf6f21" stroke-width="2.5"><title>3 阶 B+ 树：N=10000，3.786 ms</title></circle>
<circle cx="789.3" cy="249.5" r="4.5" fill="#fff" stroke="#cf6f21" stroke-width="2.5"><title>3 阶 B+ 树：N=20000，6.971 ms</title></circle>
<circle cx="1003.7" cy="218.7" r="4.5" fill="#fff" stroke="#cf6f21" stroke-width="2.5"><title>3 阶 B+ 树：N=50000，22.448 ms</title></circle>
<circle cx="1166.0" cy="201.0" r="4.5" fill="#fff" stroke="#cf6f21" stroke-width="2.5"><title>3 阶 B+ 树：N=100000，43.889 ms</title></circle>
<path d="M 88.0 382.8 L 250.3 364.3 L 464.7 340.0 L 627.0 319.4 L 789.3 300.6 L 1003.7 275.6 L 1166.0 256.2" fill="none" stroke="#9a7b00" stroke-width="3" stroke-linejoin="round"/>
<circle cx="88.0" cy="382.8" r="4.5" fill="#fff" stroke="#9a7b00" stroke-width="2.5"><title>100 阶 B+ 树：N=1000，0.044 ms</title></circle>
<circle cx="250.3" cy="364.3" r="4.5" fill="#fff" stroke="#9a7b00" stroke-width="2.5"><title>100 阶 B+ 树：N=2000，0.089 ms</title></circle>
<circle cx="464.7" cy="340.0" r="4.5" fill="#fff" stroke="#9a7b00" stroke-width="2.5"><title>100 阶 B+ 树：N=5000，0.225 ms</title></circle>
<circle cx="627.0" cy="319.4" r="4.5" fill="#fff" stroke="#9a7b00" stroke-width="2.5"><title>100 阶 B+ 树：N=10000，0.491 ms</title></circle>
<circle cx="789.3" cy="300.6" r="4.5" fill="#fff" stroke="#9a7b00" stroke-width="2.5"><title>100 阶 B+ 树：N=20000，1.004 ms</title></circle>
<circle cx="1003.7" cy="275.6" r="4.5" fill="#fff" stroke="#9a7b00" stroke-width="2.5"><title>100 阶 B+ 树：N=50000，2.587 ms</title></circle>
<circle cx="1166.0" cy="256.2" r="4.5" fill="#fff" stroke="#9a7b00" stroke-width="2.5"><title>100 阶 B+ 树：N=100000，5.406 ms</title></circle>
<line x1="88" y1="462" x2="114" y2="462" stroke="#c43d4f" stroke-width="4"/>
<text x="124" y="467" fill="#344054" font-family="'Microsoft YaHei','Noto Sans CJK SC',Arial,sans-serif" font-size="14">普通 BST</text>
<line x1="438" y1="462" x2="464" y2="462" stroke="#3274b5" stroke-width="4"/>
<text x="474" y="467" fill="#344054" font-family="'Microsoft YaHei','Noto Sans CJK SC',Arial,sans-serif" font-size="14">AVL 树</text>
<line x1="788" y1="462" x2="814" y2="462" stroke="#16877c" stroke-width="4"/>
<text x="824" y="467" fill="#344054" font-family="'Microsoft YaHei','Noto Sans CJK SC',Arial,sans-serif" font-size="14">伸展树</text>
<line x1="88" y1="487" x2="114" y2="487" stroke="#7b55aa" stroke-width="4"/>
<text x="124" y="492" fill="#344054" font-family="'Microsoft YaHei','Noto Sans CJK SC',Arial,sans-serif" font-size="14">红黑树</text>
<line x1="438" y1="487" x2="464" y2="487" stroke="#cf6f21" stroke-width="4"/>
<text x="474" y="492" fill="#344054" font-family="'Microsoft YaHei','Noto Sans CJK SC',Arial,sans-serif" font-size="14">3 阶 B+ 树</text>
<line x1="788" y1="487" x2="814" y2="487" stroke="#9a7b00" stroke-width="4"/>
<text x="824" y="492" fill="#344054" font-family="'Microsoft YaHei','Noto Sans CJK SC',Arial,sans-serif" font-size="14">100 阶 B+ 树</text>
</svg>